<svg xmlns="http://www.w3.org/2000/svg" width="28" height="26" viewBox="0 0 28 26">
    <path fill="#000" fill-rule="nonzero" d="M9.643 21.31H5.92v-3.697h3.723v3.697zm0-5.477H5.92v-3.696h3.723v3.696zm6.22 5.477H12.14v-3.697h3.724v3.697zm0-5.477H12.14v-3.696h3.724v3.696zm6.146 5.477h-3.726v-3.697h3.726v3.697zm0-5.477h-3.726v-3.696h3.726v3.696zM19.378.673V0h-1.815v.673h-7.221V0H8.527v.673H0V26h28V.673h-8.622zm6.548 23.269H2.074V2.731h6.453v1.862a1.902 1.902 0 0 0-1.011 1.678 1.91 1.91 0 0 0 1.918 1.903 1.91 1.91 0 0 0 1.919-1.903c0-.726-.41-1.357-1.011-1.678V2.731h7.221v1.863c-.6.321-1.01.952-1.01 1.677a1.91 1.91 0 0 0 1.917 1.903c1.062 0 1.921-.852 1.921-1.903 0-.726-.41-1.357-1.013-1.678V2.73h6.548v21.211z"/>
</svg>
