<svg xmlns="http://www.w3.org/2000/svg" width="44" height="44" viewBox="0 0 44 44">
    <g fill="none" fill-rule="evenodd">
        <path fill="#000" d="M0 0h44v44H0z"/>
        <path fill="#FFF" d="M26.805 22.063l6.926-5.314.05 11.874-6.976-6.56zm-15.691 7.82l7.014-6.617 3.274 2.5a.567.567 0 0 0 .68 0l3.324-2.5 7.114 6.617H11.114zM9.9 16.75l6.926 5.314-6.926 6.56V16.749zm.518-2.193c0-.153.001-.226.155-.226H32.96c.018 0 .007-.03.026-.03.153.003.243.103.243.256v.29L21.824 23.66l-11.406-8.814v-.29z"/>
    </g>
</svg>
