<svg xmlns="http://www.w3.org/2000/svg" width="44" height="44" viewBox="0 0 44 44">
    <g fill="none" fill-rule="evenodd">
        <path fill="#000" d="M0 0h44v44H0z"/>
        <path fill="#FFF" fill-rule="nonzero" d="M32.763 9.9H11.237c-.738 0-1.337.599-1.337 1.337v21.526c0 .738.599 1.337 1.337 1.337h11.59v-9.34h-3.162v-3.681h3.146V18.39c0-3.129 1.906-4.831 4.696-4.831.947.003 1.894.056 2.836.161v3.265h-1.928c-1.516 0-1.809.717-1.809 1.775v2.335h3.63l-.47 3.664h-3.16v9.34h6.157c.738 0 1.337-.599 1.337-1.337V11.237c0-.738-.599-1.337-1.337-1.337z"/>
    </g>
</svg>
