<svg xmlns="http://www.w3.org/2000/svg" width="30" height="30" viewBox="0 0 30 30">
    <path fill="#000" fill-rule="nonzero" d="M24.2 3.025a.976.976 0 0 0-1.21.043l-1.426 1.253c-.302.303-.907.346-1.296.173l-1.686-.691c-.389-.13-.778-.605-.778-1.037L17.718.864c-.043-.432-.39-.82-.821-.864H13.05c-.433.043-.778.432-.822.864l-.086 1.902c-.043.432-.389.907-.778 1.037l-1.685.691c-.39.173-.951.13-1.296-.173L6.957 3.068c-.302-.302-.864-.302-1.21-.043 0 0-.82.605-1.469 1.253-.648.648-1.253 1.47-1.253 1.47a.975.975 0 0 0 .043 1.21l1.253 1.426c.302.302.346.907.173 1.296l-.691 1.685c-.13.39-.605.779-1.038.779l-1.901.086c-.432.043-.821.388-.864.82v3.847c.043.432.432.778.864.821l1.901.086c.433.044.908.39 1.038.779l.691 1.685c.173.389.13.95-.173 1.296L3.068 22.99c-.303.303-.303.865-.043 1.21 0 0 .605.822 1.253 1.47a15.009 15.009 0 0 0 1.47 1.253.976.976 0 0 0 1.21-.043l1.426-1.253c.302-.303.907-.346 1.296-.174l1.685.692c.39.13.778.605.778 1.037l.086 1.902c.044.432.39.82.822.864h3.846c.432-.043.778-.432.821-.864l.086-1.902c.044-.432.39-.907.778-1.037l1.686-.692c.389-.172.95-.13 1.296.174l1.426 1.253c.302.302.864.302 1.21.043 0 0 .822-.605 1.47-1.253.648-.648 1.253-1.47 1.253-1.47a.976.976 0 0 0-.043-1.21l-1.254-1.426c-.302-.302-.345-.907-.173-1.296l.692-1.685c.13-.39.605-.779 1.037-.779l1.901-.086c.433-.043.822-.39.865-.82V13.05c-.043-.433-.432-.778-.865-.821l-1.901-.086c-.432-.044-.907-.39-1.037-.779l-.692-1.685c-.172-.389-.13-.95.173-1.296l1.254-1.426c.302-.303.302-.865.043-1.21 0 0-.605-.822-1.253-1.47-.648-.648-1.47-1.253-1.47-1.253zm-4.753 16.378a6.286 6.286 0 0 1-8.903 0 6.285 6.285 0 0 1 0-8.902 6.286 6.286 0 0 1 8.903 0 6.286 6.286 0 0 1 0 8.902z"/>
</svg>
