<svg xmlns="http://www.w3.org/2000/svg" width="44" height="44" viewBox="0 0 44 44">
    <g fill="none" fill-rule="evenodd">
        <path fill="#000" d="M0 0h44v44H0z"/>
        <path fill="#FFFFFE" d="M30.521 30.521h-3.587v-5.616c0-1.34-.024-3.062-1.865-3.062-1.868 0-2.154 1.459-2.154 2.965v5.713h-3.587V18.973h3.444v1.577h.047c.48-.907 1.65-1.865 3.396-1.865 3.635 0 4.306 2.392 4.306 5.502v6.334zM15.283 17.394a2.082 2.082 0 1 1 0-4.164 2.082 2.082 0 0 1 0 4.164zM13.488 30.52h3.59V18.973h-3.59V30.52zM32.308 9.9H11.687c-.985 0-1.786.781-1.786 1.744v20.71c0 .963.8 1.746 1.786 1.746H32.31c.987 0 1.791-.783 1.791-1.747V11.644c0-.963-.804-1.744-1.791-1.744z"/>
    </g>
</svg>
