<svg xmlns="http://www.w3.org/2000/svg" width="44" height="44" viewBox="0 0 44 44">
    <g fill="none" fill-rule="evenodd">
        <path fill="#000" d="M0 0h44v44H0z"/>
        <path fill="#FFF" d="M33.651 14.973a9.513 9.513 0 0 1-2.741.735c1.032-.617 1.73-1.49 2.093-2.618a9.357 9.357 0 0 1-3.022 1.147c-.943-1-2.103-1.5-3.478-1.5-1.317 0-2.44.463-3.369 1.39-.928.927-1.393 2.047-1.393 3.36 0 .354.04.717.118 1.09a13.288 13.288 0 0 1-5.476-1.464 13.493 13.493 0 0 1-4.34-3.508 4.647 4.647 0 0 0-.65 2.397c0 .814.192 1.57.576 2.265.383.697.899 1.26 1.547 1.692a4.73 4.73 0 0 1-2.152-.603v.059c0 1.147.361 2.154 1.084 3.023a4.685 4.685 0 0 0 2.734 1.64c-.413.107-.83.161-1.253.161a6.08 6.08 0 0 1-.9-.073 4.648 4.648 0 0 0 1.681 2.346c.816.613 1.74.93 2.771.949-1.729 1.353-3.7 2.03-5.91 2.03-.423 0-.806-.02-1.15-.059 2.211 1.422 4.648 2.133 7.311 2.133 1.69 0 3.277-.267 4.761-.802 1.484-.534 2.752-1.25 3.803-2.148a14.373 14.373 0 0 0 2.72-3.096 13.787 13.787 0 0 0 1.702-3.655 13.472 13.472 0 0 0 .545-4.435 9.958 9.958 0 0 0 2.388-2.456z"/>
    </g>
</svg>
